<svg width="25" height="24" viewBox="0 0 25 24" fill="none" xmlns="http://www.w3.org/2000/svg">
<g clip-path="url(#clip0_274_5670)">
<path d="M23.167 21C23.167 21 24.667 21 24.667 19.5C24.667 18 23.167 13.5 17.167 13.5C11.167 13.5 9.66699 18 9.66699 19.5C9.66699 21 11.167 21 11.167 21H23.167ZM11.2 19.5C11.1889 19.4985 11.1779 19.4965 11.167 19.494C11.1685 19.098 11.4175 17.949 12.307 16.914C13.135 15.9435 14.59 15 17.167 15C19.7425 15 21.1975 15.945 22.027 16.914C22.9165 17.949 23.164 19.0995 23.167 19.494L23.155 19.497C23.148 19.4982 23.141 19.4992 23.134 19.5H11.2ZM17.167 10.5C17.9626 10.5 18.7257 10.1839 19.2883 9.62132C19.8509 9.05871 20.167 8.29565 20.167 7.5C20.167 6.70435 19.8509 5.94129 19.2883 5.37868C18.7257 4.81607 17.9626 4.5 17.167 4.5C16.3713 4.5 15.6083 4.81607 15.0457 5.37868C14.4831 5.94129 14.167 6.70435 14.167 7.5C14.167 8.29565 14.4831 9.05871 15.0457 9.62132C15.6083 10.1839 16.3713 10.5 17.167 10.5ZM21.667 7.5C21.667 8.09095 21.5506 8.67611 21.3245 9.22208C21.0983 9.76804 20.7668 10.2641 20.349 10.682C19.9311 11.0998 19.435 11.4313 18.8891 11.6575C18.3431 11.8836 17.7579 12 17.167 12C16.576 12 15.9909 11.8836 15.4449 11.6575C14.899 11.4313 14.4029 11.0998 13.985 10.682C13.5671 10.2641 13.2357 9.76804 13.0095 9.22208C12.7834 8.67611 12.667 8.09095 12.667 7.5C12.667 6.30653 13.1411 5.16193 13.985 4.31802C14.8289 3.47411 15.9735 3 17.167 3C18.3605 3 19.5051 3.47411 20.349 4.31802C21.1929 5.16193 21.667 6.30653 21.667 7.5ZM11.071 13.92C10.471 13.7311 9.85244 13.6069 9.22599 13.5495C8.87399 13.516 8.52058 13.4995 8.16699 13.5C2.16699 13.5 0.666992 18 0.666992 19.5C0.666992 20.5005 1.16649 21 2.16699 21H8.49099C8.26862 20.5317 8.15773 20.0183 8.16699 19.5C8.16699 17.985 8.73249 16.437 9.80199 15.144C10.1665 14.703 10.591 14.2905 11.071 13.92ZM8.04699 15C7.15922 16.3339 6.67965 17.8977 6.66699 19.5H2.16699C2.16699 19.11 2.41299 17.955 3.30699 16.914C4.12449 15.96 5.54499 15.03 8.04699 15.0015V15ZM2.91699 8.25C2.91699 7.05653 3.3911 5.91193 4.23501 5.06802C5.07893 4.22411 6.22352 3.75 7.41699 3.75C8.61047 3.75 9.75506 4.22411 10.599 5.06802C11.4429 5.91193 11.917 7.05653 11.917 8.25C11.917 9.44347 11.4429 10.5881 10.599 11.432C9.75506 12.2759 8.61047 12.75 7.41699 12.75C6.22352 12.75 5.07893 12.2759 4.23501 11.432C3.3911 10.5881 2.91699 9.44347 2.91699 8.25ZM7.41699 5.25C6.62134 5.25 5.85828 5.56607 5.29567 6.12868C4.73306 6.69129 4.41699 7.45435 4.41699 8.25C4.41699 9.04565 4.73306 9.80871 5.29567 10.3713C5.85828 10.9339 6.62134 11.25 7.41699 11.25C8.21264 11.25 8.9757 10.9339 9.53831 10.3713C10.1009 9.80871 10.417 9.04565 10.417 8.25C10.417 7.45435 10.1009 6.69129 9.53831 6.12868C8.9757 5.56607 8.21264 5.25 7.41699 5.25Z" fill="#94A3B8"/>
</g>
<defs>
<clipPath id="clip0_274_5670">
<rect width="24" height="24" fill="white" transform="translate(0.666992)"/>
</clipPath>
</defs>
</svg>
