<svg width="62" height="70" viewBox="0 0 62 70" fill="none" xmlns="http://www.w3.org/2000/svg">
<g clip-path="url(#clip0_237_3784)">
<path d="M31 35C35.6413 35 40.0925 33.1563 43.3744 29.8744C46.6563 26.5925 48.5 22.1413 48.5 17.5C48.5 12.8587 46.6563 8.40752 43.3744 5.12563C40.0925 1.84374 35.6413 0 31 0C26.3587 0 21.9075 1.84374 18.6256 5.12563C15.3437 8.40752 13.5 12.8587 13.5 17.5C13.5 22.1413 15.3437 26.5925 18.6256 29.8744C21.9075 33.1563 26.3587 35 31 35ZM17.875 42.5469C7.75781 45.5137 0.375 54.8652 0.375 65.9395C0.375 68.1816 2.19336 70 4.43555 70H57.5645C59.8066 70 61.625 68.1816 61.625 65.9395C61.625 54.8652 54.2422 45.5137 44.125 42.5469V49.4922C47.8984 50.4629 50.6875 53.8945 50.6875 57.9688V63.4375C50.6875 64.6406 49.7031 65.625 48.5 65.625H46.3125C45.1094 65.625 44.125 64.6406 44.125 63.4375C44.125 62.2344 45.1094 61.25 46.3125 61.25V57.9688C46.3125 55.5488 44.3574 53.5938 41.9375 53.5938C39.5176 53.5938 37.5625 55.5488 37.5625 57.9688V61.25C38.7656 61.25 39.75 62.2344 39.75 63.4375C39.75 64.6406 38.7656 65.625 37.5625 65.625H35.375C34.1719 65.625 33.1875 64.6406 33.1875 63.4375V57.9688C33.1875 53.8945 35.9766 50.4629 39.75 49.4922V41.6855C38.9297 41.6035 38.0957 41.5625 37.248 41.5625H24.752C23.9043 41.5625 23.0703 41.6035 22.25 41.6855V50.627C25.4082 51.5703 27.7188 54.4961 27.7188 57.9688C27.7188 62.1934 24.2871 65.625 20.0625 65.625C15.8379 65.625 12.4062 62.1934 12.4062 57.9688C12.4062 54.4961 14.7168 51.5703 17.875 50.627V42.5469ZM20.0625 61.25C20.9327 61.25 21.7673 60.9043 22.3827 60.2889C22.998 59.6736 23.3438 58.839 23.3438 57.9688C23.3438 57.0985 22.998 56.2639 22.3827 55.6486C21.7673 55.0332 20.9327 54.6875 20.0625 54.6875C19.1923 54.6875 18.3577 55.0332 17.7423 55.6486C17.127 56.2639 16.7812 57.0985 16.7812 57.9688C16.7812 58.839 17.127 59.6736 17.7423 60.2889C18.3577 60.9043 19.1923 61.25 20.0625 61.25Z" fill="#1E293B"/>
</g>
<defs>
<clipPath id="clip0_237_3784">
<rect width="61.25" height="70" fill="white" transform="translate(0.375)"/>
</clipPath>
</defs>
</svg>
