<svg width="62" height="70" viewBox="0 0 62 70" fill="none" xmlns="http://www.w3.org/2000/svg">
<g clip-path="url(#clip0_237_3779)">
<path d="M31 35C35.6413 35 40.0925 33.1563 43.3744 29.8744C46.6563 26.5925 48.5 22.1413 48.5 17.5C48.5 12.8587 46.6563 8.40752 43.3744 5.12563C40.0925 1.84374 35.6413 0 31 0C26.3587 0 21.9075 1.84374 18.6256 5.12563C15.3437 8.40752 13.5 12.8587 13.5 17.5C13.5 22.1413 15.3437 26.5925 18.6256 29.8744C21.9075 33.1563 26.3587 35 31 35ZM24.752 41.5625C11.2852 41.5625 0.375 52.4727 0.375 65.9395C0.375 68.1816 2.19336 70 4.43555 70H57.5645C59.8066 70 61.625 68.1816 61.625 65.9395C61.625 52.4727 50.7148 41.5625 37.248 41.5625H24.752Z" fill="white"/>
</g>
<defs>
<clipPath id="clip0_237_3779">
<rect width="61.25" height="70" fill="white" transform="translate(0.375)"/>
</clipPath>
</defs>
</svg>
