<svg width="25" height="24" viewBox="0 0 25 24" fill="none" xmlns="http://www.w3.org/2000/svg">
<path d="M13.5605 2.25C13.2792 1.96879 12.8977 1.81082 12.5 1.81082C12.1022 1.81082 11.7208 1.96879 11.4395 2.25L1.46897 12.219C1.39924 12.2887 1.34392 12.3715 1.30619 12.4626C1.26845 12.5537 1.24902 12.6514 1.24902 12.75C1.24902 12.8486 1.26845 12.9463 1.30619 13.0374C1.34392 13.1285 1.39924 13.2113 1.46897 13.281C1.6098 13.4218 1.80081 13.5009 1.99997 13.5009C2.09859 13.5009 2.19624 13.4815 2.28735 13.4438C2.37846 13.406 2.46124 13.3507 2.53097 13.281L12.5 3.3105L22.469 13.281C22.6098 13.4218 22.8008 13.5009 23 13.5009C23.1991 13.5009 23.3901 13.4218 23.531 13.281C23.6718 13.1402 23.7509 12.9492 23.7509 12.75C23.7509 12.5508 23.6718 12.3598 23.531 12.219L20 8.6895V3.75C20 3.55109 19.921 3.36032 19.7803 3.21967C19.6396 3.07902 19.4489 3 19.25 3H17.75C17.5511 3 17.3603 3.07902 17.2196 3.21967C17.079 3.36032 17 3.55109 17 3.75V5.6895L13.5605 2.25Z" fill="#0F766A"/>
<path d="M12.5 4.93951L21.5 13.9395V20.25C21.5 20.8468 21.2629 21.419 20.841 21.841C20.419 22.263 19.8467 22.5 19.25 22.5H5.75C5.15326 22.5 4.58097 22.263 4.15901 21.841C3.73705 21.419 3.5 20.8468 3.5 20.25V13.9395L12.5 4.93951Z" fill="#0F766A"/>
</svg>
