<svg width="89" height="84" viewBox="0 0 89 84" fill="none" xmlns="http://www.w3.org/2000/svg">
<path d="M68.7883 15.1721C71.6258 16.6306 76.954 19.1769 80.8132 22.0303C81.205 22.3135 81.16 22.4221 80.6835 22.3374C56.8004 18.2637 31.922 22.7132 12.5439 37.6366C12.2606 37.8615 12.0674 37.7901 11.9748 37.446L8.26909 23.4755C8.23132 23.3634 8.23452 23.2415 8.27814 23.1315C8.32175 23.0215 8.40295 22.9305 8.50731 22.8747C19.6058 15.6945 31.6288 10.0561 44.246 6.11438C47.8061 5.00003 64.9132 13.179 68.7883 15.1721Z" fill="#1B3F65"/>
<path d="M80.2918 30.1246C79.6161 29.8409 78.8847 29.7151 78.1531 29.7567L76.4617 29.5105C75.9085 29.5873 75.5697 29.8334 75.4479 30.2411C75.4214 30.3437 75.363 30.4353 75.2812 30.5028C75.1995 30.5703 75.0985 30.6103 74.9927 30.6169C57.6712 32.8086 43.2834 40.4414 31.8293 53.5154C30.6982 54.8071 28.3557 57.8184 24.8018 62.5494C29.9236 69.7746 36.7162 75.6545 44.6007 79.6882C44.8545 79.8175 45.1358 79.8835 45.4206 79.8808C45.7054 79.878 45.9853 79.8065 46.2365 79.6723C58.1388 73.1979 67.0634 63.5737 73.0101 50.7997C76.284 44.409 78.8219 37.6674 80.575 30.7043C80.5946 30.6476 80.6028 30.5877 80.5992 30.5278C80.5955 30.468 80.5801 30.4095 80.5538 30.3556C80.5275 30.3017 80.4908 30.2536 80.4458 30.214C80.4009 30.1743 80.3485 30.144 80.2918 30.1246Z" fill="#0F766A"/>
<path d="M80.5483 30.3443C80.6648 30.5455 75.2307 30.5878 74.9898 30.609C57.6684 32.8006 43.2806 40.4335 31.8265 53.5075C30.6954 54.7992 28.3528 57.8105 24.7989 62.5414C22.0571 58.9332 19.6842 55.059 17.7158 50.977C17.6569 50.8692 17.6357 50.7449 17.6553 50.6236C17.675 50.5024 17.7344 50.3911 17.8243 50.3074C33.6158 33.7932 53.0918 26.7339 76.398 29.3808C76.398 29.3808 80.2016 29.754 80.5483 30.3443Z" fill="#165867"/>
<path opacity="0.3" d="M80.5961 30.5507C80.5961 30.5507 46.3211 39.4762 36.689 74.7437C39.3765 76.7847 42.2906 78.5087 45.3735 79.8814C47.7095 78.7551 49.9655 77.4701 52.1258 76.0354C71.3636 63.2402 78.153 39.5476 80.5961 30.5507Z" fill="url(#paint0_linear_237_3755)"/>
<defs>
<linearGradient id="paint0_linear_237_3755" x1="37.9013" y1="82.8936" x2="77.5548" y2="30.2622" gradientUnits="userSpaceOnUse">
<stop stop-color="white" stop-opacity="0"/>
<stop offset="0.28" stop-color="#ACDCCF" stop-opacity="0.33"/>
<stop offset="0.61" stop-color="#53B69C" stop-opacity="0.69"/>
<stop offset="0.86" stop-color="#1C9E7C" stop-opacity="0.92"/>
<stop offset="1" stop-color="#079570"/>
</linearGradient>
</defs>
</svg>
