<svg width="170" height="342" viewBox="0 0 170 342" fill="none" xmlns="http://www.w3.org/2000/svg">
<path d="M-149.91 227.271C-121.679 280.084 -77.8248 334.313 -11.5072 371C57.2832 335.939 134.021 254.396 163.809 124.466C117.332 116.416 31.7458 112.084 -34.396 144.206C-84.3877 168.484 -124.157 201.331 -149.91 227.271Z" fill="#D8CEC3" fill-opacity="0.25"/>
<path d="M-176.238 167.191C-147.379 142.396 -93.0177 106.254 -26.1048 91.6398C41.6236 76.8475 122.211 81.6219 170 87.8957C130.526 62.3677 40.0467 9.72597 -11.5072 0C-62.8869 12.4229 -161.86 56.8269 -195 88.3189C-192.974 107.394 -187.348 135.426 -176.238 167.191Z" fill="#D8CEC3" fill-opacity="0.25"/>
</svg>
