<svg width="22" height="24" viewBox="0 0 22 24" fill="none" xmlns="http://www.w3.org/2000/svg">
<path d="M7.77644 11.5764C7.59974 11.5185 7.56352 11.6206 7.52642 11.7319C7.33161 12.3176 7.13902 12.9042 6.93715 13.4873C6.82495 13.8111 6.53429 14.0037 6.23038 13.9781C6.0738 13.9696 5.92512 13.9066 5.8102 13.7999C5.69528 13.6932 5.62138 13.5496 5.60136 13.3941C5.58918 13.256 5.60711 13.1169 5.65393 12.9864C5.85227 12.3711 6.06695 11.7606 6.26351 11.1448C6.29523 11.0373 6.29276 10.9226 6.25645 10.8166C6.04088 10.238 6.24364 9.63014 6.76576 9.29089C6.85971 9.22809 6.93265 9.13853 6.97514 9.03381C7.14918 8.56425 7.46104 8.22589 7.92044 8.04257C9.39935 7.45507 10.88 7.41045 12.3682 8.0249C12.8479 8.22279 13.1735 8.55939 13.34 9.04618C13.7888 10.3687 14.2341 11.6924 14.6758 13.0173C14.8114 13.4233 14.6316 13.8124 14.2663 13.9392C13.8825 14.0717 13.5096 13.8752 13.3652 13.4533C13.124 12.751 12.8908 12.0464 12.654 11.3427C12.6374 11.2756 12.5985 11.216 12.5436 11.174V11.382C12.5436 13.429 12.5445 15.4757 12.5462 17.5221C12.5493 17.6605 12.5726 17.7977 12.6156 17.9293C12.6966 18.1828 12.7003 18.4547 12.6262 18.7103C12.5777 18.8782 12.5511 19.0516 12.5471 19.2263C12.5387 20.051 12.5445 20.8757 12.5427 21.6999C12.5427 22.3316 12.1677 22.7539 11.5912 22.7791C11.0147 22.8043 10.5099 22.3842 10.4767 21.7865C10.4286 20.9269 10.4246 20.0638 10.3941 19.2037C10.3865 19.0739 10.3586 18.946 10.3115 18.8247C10.213 18.5617 10.1939 18.2755 10.2567 18.0018C10.3096 17.7757 10.3392 17.5448 10.3451 17.3127C10.3499 16.886 10.3257 16.4588 10.3137 16.0317C10.3106 15.9195 10.3195 15.79 10.1609 15.7892C9.98994 15.7892 9.99877 15.9239 9.99612 16.044C9.95195 17.8843 9.90778 19.725 9.85521 21.5656C9.85284 21.7708 9.81286 21.9739 9.73727 22.1646C9.546 22.6125 9.03271 22.8595 8.57199 22.7596C8.06047 22.6488 7.77688 22.2932 7.77688 21.7459C7.77688 18.4397 7.77688 15.1332 7.77688 11.8264L7.77644 11.5764ZM6.63943 10.351C6.63798 10.4532 6.65697 10.5547 6.69528 10.6495C6.73359 10.7442 6.79044 10.8304 6.86251 10.9029C6.93458 10.9754 7.0204 11.0327 7.11494 11.0716C7.20948 11.1104 7.31083 11.13 7.41304 11.1292C7.51525 11.1283 7.61626 11.107 7.71013 11.0666C7.80401 11.0262 7.88886 10.9674 7.95971 10.8937C8.03056 10.82 8.08597 10.7329 8.12269 10.6376C8.15941 10.5422 8.1767 10.4404 8.17355 10.3382C8.16758 10.1381 8.08492 9.94801 7.94268 9.80716C7.80044 9.66632 7.60949 9.58554 7.40936 9.58155C7.20531 9.58178 7.00967 9.66292 6.86535 9.80716C6.72102 9.95141 6.63978 10.147 6.63943 10.351ZM11.3938 10.2923C11.5435 10.2904 11.6894 10.2443 11.8132 10.1599C11.9369 10.0754 12.033 9.9564 12.0894 9.81762C12.1459 9.67885 12.1601 9.52651 12.1304 9.37969C12.1006 9.23286 12.0283 9.09807 11.9223 8.99217C11.8164 8.88627 11.6815 8.81398 11.5347 8.78433C11.3878 8.75469 11.2355 8.76901 11.0968 8.82551C10.958 8.88201 10.839 8.97817 10.7547 9.10197C10.6703 9.22576 10.6243 9.37168 10.6225 9.52148C10.6214 9.62303 10.6407 9.72378 10.679 9.81781C10.7174 9.91184 10.7742 9.99726 10.846 10.0691C10.9179 10.1409 11.0033 10.1976 11.0974 10.2359C11.1914 10.2742 11.2922 10.2934 11.3938 10.2923ZM12.2096 18.3318C12.2035 18.1335 12.1206 17.9455 11.9784 17.8072C11.8362 17.669 11.6459 17.5914 11.4476 17.5908C11.2493 17.5902 11.0585 17.6667 10.9155 17.8041C10.7725 17.9416 10.6885 18.1292 10.6812 18.3273C10.6808 18.4277 10.7002 18.5273 10.7383 18.6202C10.7763 18.7131 10.8323 18.7976 10.903 18.8689C10.9737 18.9402 11.0578 18.9969 11.1504 19.0357C11.243 19.0745 11.3424 19.0947 11.4428 19.0951C11.5432 19.0955 11.6427 19.0761 11.7356 19.038C11.8286 19 11.9131 18.944 11.9844 18.8733C12.0557 18.8026 12.1123 18.7185 12.1511 18.6259C12.1899 18.5333 12.2101 18.4339 12.2105 18.3335L12.2096 18.3318Z" fill="#94A3B8"/>
<path d="M7.00488 17.0264C4.71761 16.1761 1.98817 13.5536 1.88657 9.578C1.79425 5.94346 4.00466 2.73386 7.37152 1.54605C10.9981 0.267244 14.8173 1.49658 17.0096 4.57012C19.171 7.59994 19.118 12.1308 16.1787 15.1822L16.9045 16.0347L17.2808 15.7255L20.0558 18.9828L18.0163 20.4905C17.1306 19.4515 16.2494 18.4179 15.3584 17.3705L15.7189 17.0423L15.0121 16.2123L13.3061 17.1329C13.3061 16.6435 13.2986 16.2242 13.3137 15.8077C13.3159 15.7401 13.402 15.6509 13.4744 15.6133C14.5413 15.0504 15.4472 14.2251 16.1067 13.2152C18.8388 9.08547 16.4208 3.36685 11.5569 2.45999C7.78409 1.75322 4.24982 4.0374 3.34472 7.7647C2.60924 10.7928 4.06209 14.0576 6.80964 15.5343C6.96248 15.6164 7.0146 15.7061 7.00886 15.8753C6.99605 16.2556 7.00488 16.6377 7.00488 17.0264Z" fill="#94A3B8"/>
<path d="M10.1418 7.02834C9.63569 7.02681 9.15092 6.8243 8.79412 6.46536C8.43733 6.10641 8.23774 5.62043 8.23927 5.11433C8.24079 4.60822 8.4433 4.12345 8.80225 3.76666C9.16119 3.40987 9.64717 3.21028 10.1533 3.2118C11.2479 3.21666 12.0695 4.04799 12.0691 5.15055C12.0686 6.20319 11.2223 7.02745 10.1418 7.02834Z" fill="#94A3B8"/>
</svg>
